HIERARCHY
ROOT pelvis
{
	OFFSET 0.003123 -0.351407 0.012037
	CHANNELS 6 Xposition Yposition Zposition Zrotation Yrotation Xrotation 
	JOINT left_hip
	{
		OFFSET 0.058189 -0.092763 -0.026001
		CHANNELS 3 Zrotation Yrotation Xrotation
		JOINT left_knee
		{
			OFFSET 0.054695 -0.378753 -0.009396
			CHANNELS 3 Zrotation Yrotation Xrotation
			JOINT left_ankle
			{
				OFFSET -0.043453 -0.403059 -0.031876
				CHANNELS 3 Zrotation Yrotation Xrotation
				JOINT left_foot
				{
					OFFSET 0.047257 -0.057997 0.118216
					CHANNELS 3 Zrotation Yrotation Xrotation
					End Site
					{
						OFFSET 0.000000 0.000000 0.000000
					}
				}
			}
		}
	}
	JOINT right_hip
	{
		OFFSET -0.063267 -0.103908 -0.021250
		CHANNELS 3 Zrotation Yrotation Xrotation
		JOINT right_knee
		{
			OFFSET -0.044210 -0.362380 -0.016824
			CHANNELS 3 Zrotation Yrotation Xrotation
			JOINT right_ankle
			{
				OFFSET 0.015417 -0.410728 -0.020192
				CHANNELS 3 Zrotation Yrotation Xrotation
				JOINT right_foot
				{
					OFFSET -0.038812 -0.058328 0.119049
					CHANNELS 3 Zrotation Yrotation Xrotation
					End Site
					{
						OFFSET 0.000000 0.000000 0.000000
					}
				}
			}
		}
	}
	JOINT spine_1
	{
		OFFSET -0.002763 0.109891 -0.027618
		CHANNELS 3 Zrotation Yrotation Xrotation
		JOINT spine_2
		{
			OFFSET 0.009448 0.131853 -0.005940
			CHANNELS 3 Zrotation Yrotation Xrotation
			JOINT spine_3
			{
				OFFSET -0.011330 0.052235 0.028447
				CHANNELS 3 Zrotation Yrotation Xrotation
				JOINT neck
				{
					OFFSET -0.012164 0.165167 -0.031615
					CHANNELS 3 Zrotation Yrotation Xrotation
					JOINT head
					{
						OFFSET 0.024783 0.160452 0.020737
						CHANNELS 3 Zrotation Yrotation Xrotation
						End Site
						{
							OFFSET 0.000000 0.000000 0.000000
						}
					}
				}
				JOINT left_collar
				{
					OFFSET 0.046364 0.084944 -0.007220
					CHANNELS 3 Zrotation Yrotation Xrotation
					JOINT left_shoulder
					{
						OFFSET 0.119239 0.057728 -0.015461
						CHANNELS 3 Zrotation Yrotation Xrotation
						JOINT left_elbow
						{
							OFFSET 0.254123 -0.072151 -0.042459
							CHANNELS 3 Zrotation Yrotation Xrotation
							JOINT left_wrist
							{
								OFFSET 0.251987 0.023221 -0.002472
								CHANNELS 3 Zrotation Yrotation Xrotation
								JOINT left_index_1
								{
									OFFSET 0.101902 -0.008688 0.019351
									CHANNELS 3 Zrotation Yrotation Xrotation
									JOINT left_index_2
									{
										OFFSET 0.030149 -0.011154 0.001151
										CHANNELS 3 Zrotation Yrotation Xrotation
										JOINT left_index_3
										{
											OFFSET 0.006504 -0.021577 -0.002433
											CHANNELS 3 Zrotation Yrotation Xrotation
											End Site
											{
												OFFSET 0.000000 0.000000 0.000000
											}
										}
									}
								}
								JOINT left_middle_1
								{
									OFFSET 0.109398 -0.006328 -0.003981
									CHANNELS 3 Zrotation Yrotation Xrotation
									JOINT left_middle_2
									{
										OFFSET 0.026472 -0.015218 -0.004641
										CHANNELS 3 Zrotation Yrotation Xrotation
										JOINT left_middle_3
										{
											OFFSET 0.005022 -0.023347 -0.001911
											CHANNELS 3 Zrotation Yrotation Xrotation
											End Site
											{
												OFFSET 0.000000 0.000000 0.000000
											}
										}
									}
								}
								JOINT left_pinky_1
								{
									OFFSET 0.084047 -0.014539 -0.043750
									CHANNELS 3 Zrotation Yrotation Xrotation
									JOINT left_pinky_2
									{
										OFFSET 0.012124 -0.014448 -0.005375
										CHANNELS 3 Zrotation Yrotation Xrotation
										JOINT left_pinky_3
										{
											OFFSET 0.003798 -0.018853 0.000167
											CHANNELS 3 Zrotation Yrotation Xrotation
											End Site
											{
												OFFSET 0.000000 0.000000 0.000000
											}
										}
									}
								}
								JOINT left_ring_1
								{
									OFFSET 0.097444 -0.009268 -0.027345
									CHANNELS 3 Zrotation Yrotation Xrotation
									JOINT left_ring_2
									{
										OFFSET 0.023561 -0.016057 -0.001895
										CHANNELS 3 Zrotation Yrotation Xrotation
										JOINT left_ring_3
										{
											OFFSET 0.004257 -0.023548 0.000814
											CHANNELS 3 Zrotation Yrotation Xrotation
											End Site
											{
												OFFSET 0.000000 0.000000 0.000000
											}
										}
									}
								}
								JOINT left_thumb_1
								{
									OFFSET 0.040636 -0.017977 0.025611
									CHANNELS 3 Zrotation Yrotation Xrotation
									JOINT left_thumb_2
									{
										OFFSET 0.021637 -0.017639 0.011623
										CHANNELS 3 Zrotation Yrotation Xrotation
										JOINT left_thumb_3
										{
											OFFSET 0.024002 -0.008356 0.006548
											CHANNELS 3 Zrotation Yrotation Xrotation
											End Site
											{
												OFFSET 0.000000 0.000000 0.000000
											}
										}
									}
								}
							}
						}
					}
				}
				JOINT right_collar
				{
					OFFSET -0.047695 0.084339 -0.013400
					CHANNELS 3 Zrotation Yrotation Xrotation
					JOINT right_shoulder
					{
						OFFSET -0.102578 0.053524 -0.012669
						CHANNELS 3 Zrotation Yrotation Xrotation
						JOINT right_elbow
						{
							OFFSET -0.271150 -0.036492 -0.026467
							CHANNELS 3 Zrotation Yrotation Xrotation
							JOINT right_wrist
							{
								OFFSET -0.249267 -0.004533 -0.015325
								CHANNELS 3 Zrotation Yrotation Xrotation
								JOINT right_index_1
								{
									OFFSET -0.099881 -0.011783 0.019600
									CHANNELS 3 Zrotation Yrotation Xrotation
									JOINT right_index_2
									{
										OFFSET -0.030148 -0.011154 0.001151
										CHANNELS 3 Zrotation Yrotation Xrotation
										JOINT right_index_3
										{
											OFFSET -0.006505 -0.021577 -0.002432
											CHANNELS 3 Zrotation Yrotation Xrotation
											End Site
											{
												OFFSET 0.000000 0.000000 0.000000
											}
										}
									}
								}
								JOINT right_middle_1
								{
									OFFSET -0.107376 -0.009422 -0.003734
									CHANNELS 3 Zrotation Yrotation Xrotation
									JOINT right_middle_2
									{
										OFFSET -0.026472 -0.015218 -0.004641
										CHANNELS 3 Zrotation Yrotation Xrotation
										JOINT right_middle_3
										{
											OFFSET -0.005022 -0.023347 -0.001911
											CHANNELS 3 Zrotation Yrotation Xrotation
											End Site
											{
												OFFSET 0.000000 0.000000 0.000000
											}
										}
									}
								}
								JOINT right_pinky_1
								{
									OFFSET -0.082027 -0.017634 -0.043503
									CHANNELS 3 Zrotation Yrotation Xrotation
									JOINT right_pinky_2
									{
										OFFSET -0.012123 -0.014448 -0.005374
										CHANNELS 3 Zrotation Yrotation Xrotation
										JOINT right_pinky_3
										{
											OFFSET -0.003798 -0.018852 0.000167
											CHANNELS 3 Zrotation Yrotation Xrotation
											End Site
											{
												OFFSET 0.000000 0.000000 0.000000
											}
										}
									}
								}
								JOINT right_ring_1
								{
									OFFSET -0.095423 -0.012362 -0.027099
									CHANNELS 3 Zrotation Yrotation Xrotation
									JOINT right_ring_2
									{
										OFFSET -0.023561 -0.016057 -0.001895
										CHANNELS 3 Zrotation Yrotation Xrotation
										JOINT right_ring_3
										{
											OFFSET -0.004257 -0.023548 0.000816
											CHANNELS 3 Zrotation Yrotation Xrotation
											End Site
											{
												OFFSET 0.000000 0.000000 0.000000
											}
										}
									}
								}
								JOINT right_thumb_1
								{
									OFFSET -0.038613 -0.021074 0.025861
									CHANNELS 3 Zrotation Yrotation Xrotation
									JOINT right_thumb_2
									{
										OFFSET -0.021636 -0.017639 0.011623
										CHANNELS 3 Zrotation Yrotation Xrotation
										JOINT right_thumb_3
										{
											OFFSET -0.024004 -0.008353 0.006547
											CHANNELS 3 Zrotation Yrotation Xrotation
											End Site
											{
												OFFSET 0.000000 0.000000 0.000000
											}
										}
									}
								}
							}
						}
					}
				}
			}
		}
	}
}
MOTION
Frames: 7
Frame Time: 0.050000
0.033947 1.032001 0.048103 -0.117519 4.863062 -15.861106 -1.907431 2.627703 17.110634 4.171178 -1.561807 8.327683 -10.417667 -6.360537 13.946045 0.000000 0.000000 0.000000 -1.614142 -1.621837 14.233272 -2.815014 0.538051 6.199511 6.867639 6.194428 10.454179 0.000000 0.000000 0.000000 -3.869674 -1.300678 27.418208 3.651370 -3.556771 -10.228387 0.509936 8.909995 4.906354 5.171852 -4.809345 16.650374 0.000000 0.000000 0.000000 -8.377028 -1.889151 -0.929625 -50.415919 4.013495 -10.204530 -35.481785 -18.552699 7.244658 -6.690729 0.543617 12.502033 -22.272339 13.553021 2.602611 -2.603874 -1.922616 -5.862519 0.000000 0.000000 0.000000 -20.908306 2.421071 -3.422835 -23.803683 2.767033 -3.322826 0.000000 0.000000 0.000000 11.262617 -13.394808 -9.250308 -41.757616 -7.601169 -19.578835 0.000000 0.000000 0.000000 -14.828492 -1.306580 -2.415292 -40.542210 -1.425193 -7.302435 0.000000 0.000000 0.000000 11.337057 19.737929 18.261458 -3.814235 -7.877353 -0.960424 0.000000 0.000000 0.000000 10.089882 3.061043 1.776239 50.529956 1.342263 -3.846948 23.357280 26.126044 4.028575 10.018911 4.591185 -1.400814 23.364786 -4.346997 1.666798 15.655283 -1.937921 1.145096 0.000000 0.000000 0.000000 33.382903 -1.015722 -4.607332 24.136970 1.395741 -6.443669 0.000000 0.000000 0.000000 7.955715 6.317155 -10.782284 43.610219 5.329667 -7.842001 0.000000 0.000000 0.000000 30.265263 1.838782 -2.481140 34.135722 5.445505 -6.441218 0.000000 0.000000 0.000000 -9.287643 -18.802036 13.929469 0.916213 3.220657 -0.885888 0.000000 0.000000 0.000000 
0.035007 1.034580 0.054703 0.802686 8.382196 -16.386322 -3.828133 2.614540 15.576336 5.769233 -2.117246 10.101737 -9.791772 -6.511221 12.030209 0.000000 0.000000 0.000000 -2.018538 -1.911778 16.210819 -2.695393 0.464266 5.045041 6.230632 5.872317 9.913039 0.000000 0.000000 0.000000 -7.036246 -0.890760 30.430372 3.691065 -3.737318 -13.293390 3.386290 8.645752 8.613925 4.844598 -3.786865 12.712686 0.000000 0.000000 0.000000 -8.572124 1.074799 -2.711539 -49.335483 0.564679 -9.863465 -38.706201 -15.031411 6.193655 -5.944392 0.890240 15.034318 -23.534331 13.037342 2.263079 -8.169753 -3.882520 -11.188021 0.000000 0.000000 0.000000 -26.353174 0.991464 -5.360858 -20.247260 1.111620 -6.573935 0.000000 0.000000 0.000000 7.180379 -20.131762 -17.039454 -41.999345 -6.610310 -18.129949 0.000000 0.000000 0.000000 -21.671270 -3.913103 -4.387369 -38.580224 -2.871588 -12.133346 0.000000 0.000000 0.000000 7.506720 19.853683 19.122733 -0.280436 -7.729726 -2.288162 0.000000 0.000000 0.000000 10.215328 0.078093 0.018554 50.283069 2.494392 -3.705321 23.791726 24.843879 3.940915 11.209956 0.651153 -2.882641 24.331033 -7.166135 2.214098 4.329986 1.209115 -4.127375 0.000000 0.000000 0.000000 32.132052 1.839428 -5.009744 12.227840 0.884234 -4.127032 0.000000 0.000000 0.000000 0.637456 9.289104 -13.378618 26.189141 0.576117 -1.386743 0.000000 0.000000 0.000000 27.894915 3.093749 -2.681686 21.300217 4.529940 -7.118515 0.000000 0.000000 0.000000 -10.961941 -22.535067 17.380247 6.583075 2.678288 0.808211 0.000000 0.000000 0.000000 
0.043840 1.029423 0.066582 1.250890 9.465633 -14.618732 -5.285115 2.329459 12.557169 7.671808 -2.543136 10.622910 -10.913495 -9.136501 11.204712 0.000000 0.000000 0.000000 -3.013712 -1.560839 14.387038 -2.710286 0.571536 7.167472 6.059701 5.577006 10.098520 0.000000 0.000000 0.000000 -4.843810 -1.547963 34.114655 1.955616 -3.821020 -19.895371 1.795197 7.803294 12.301091 4.717714 -3.258453 10.612267 0.000000 0.000000 0.000000 -8.715145 -0.038718 -2.099772 -48.941032 -0.911820 -9.821677 -37.670919 -13.797993 5.562353 -5.391064 -0.993384 14.615531 -32.801946 18.198645 2.145758 -43.608866 -1.924821 -12.097105 0.000000 0.000000 0.000000 -48.136919 17.440189 -8.287194 -36.875702 -7.853104 -23.067794 0.000000 0.000000 0.000000 -35.505045 -19.777403 -22.739148 -50.555330 -12.346778 -20.509978 0.000000 0.000000 0.000000 -52.834650 0.966477 -8.117338 -48.766524 -8.421037 -15.361300 0.000000 0.000000 0.000000 -0.364543 17.830982 18.504771 20.209634 0.118325 -7.757132 0.000000 0.000000 0.000000 11.332672 -0.908729 -0.493391 51.942851 4.556440 -3.443930 22.381662 20.249381 2.791249 9.618951 3.886187 -2.443558 24.937758 -7.955819 2.313559 11.152308 3.148436 -9.650486 0.000000 0.000000 0.000000 36.184400 1.812219 -5.309357 11.971976 2.767311 -9.272884 0.000000 0.000000 0.000000 9.534082 10.599981 -16.331338 30.466510 5.582889 -9.862444 0.000000 0.000000 0.000000 34.558719 6.987692 -3.973470 16.588617 4.627424 -8.888553 0.000000 0.000000 0.000000 -6.098403 -20.211056 15.877693 -0.203937 1.122268 -0.481435 0.000000 0.000000 0.000000 
0.047374 1.026199 0.059982 1.379487 8.589518 -14.231733 -5.274473 2.236168 11.913209 6.946637 -2.100484 8.997880 -11.223734 -9.585780 11.437969 0.000000 0.000000 0.000000 -3.915051 -1.342493 13.758455 -2.560726 0.614582 8.458594 5.440135 5.688653 8.039841 0.000000 0.000000 0.000000 -3.116730 -1.881711 33.731807 -0.068799 -2.902991 -18.563962 1.351628 7.031276 9.582330 5.323308 -4.129292 13.558019 0.000000 0.000000 0.000000 -6.852551 -0.521646 -1.295561 -51.041853 0.444222 -10.251393 -35.053673 -12.773525 4.843368 -6.195406 -1.315077 12.862433 -27.664026 20.005242 3.681423 -45.411136 -6.031937 -15.876451 0.000000 0.000000 0.000000 -46.222253 12.932320 -7.646107 -39.069562 -7.502898 -22.083398 0.000000 0.000000 0.000000 -34.038293 -20.675069 -25.687107 -42.641195 -8.196688 -13.866281 0.000000 0.000000 0.000000 -48.750222 -3.396614 -7.377035 -40.678353 -10.278798 -22.739271 0.000000 0.000000 0.000000 -3.980732 13.689052 14.702191 20.257645 3.217899 -6.164471 0.000000 0.000000 0.000000 9.751676 -0.061715 -0.125556 54.463391 3.470000 -3.684901 21.597012 18.854625 2.319101 4.389825 2.875721 -3.675489 28.005989 0.509746 1.417409 16.221431 1.489972 -6.248465 0.000000 0.000000 0.000000 41.596622 3.863815 -5.927201 13.014724 3.284647 -11.197570 0.000000 0.000000 0.000000 19.644694 6.423288 -12.524935 30.796532 6.472422 -11.410112 0.000000 0.000000 0.000000 39.793035 6.863852 -3.389420 17.196009 5.536719 -11.289947 0.000000 0.000000 0.000000 -0.851986 -12.472814 9.713780 -1.848875 -3.267919 0.863429 0.000000 0.000000 0.000000 
0.050436 1.019753 0.063942 0.745588 6.931338 -13.381140 -5.004627 2.019316 10.679972 6.327512 -2.130718 9.683238 -11.450701 -9.937718 11.761661 0.000000 0.000000 0.000000 -3.893997 -0.970674 10.737735 -2.369825 0.700613 10.821553 6.372291 6.321266 9.322427 0.000000 0.000000 0.000000 -2.168699 -2.088458 33.903059 -1.903752 -3.332313 -23.343569 3.109730 6.441622 14.764264 5.169006 -3.063000 9.499083 0.000000 0.000000 0.000000 -5.004399 1.326447 -1.757347 -53.317937 1.783187 -11.239061 -34.503827 -12.099924 4.620602 -3.324745 -3.218963 10.597255 -22.233463 10.145367 2.190375 -14.028667 -2.688007 -9.746694 0.000000 0.000000 0.000000 -28.024050 1.759328 -4.878221 -24.677097 -6.502383 -23.252203 0.000000 0.000000 0.000000 2.855466 -21.154877 -21.265504 -29.799562 -7.786280 -24.396531 0.000000 0.000000 0.000000 -22.831547 -7.199918 -5.289590 -38.952488 -9.607606 -23.043239 0.000000 0.000000 0.000000 5.296874 17.563778 16.265971 5.260464 -2.405272 -2.576405 0.000000 0.000000 0.000000 8.464892 0.961571 0.514341 57.286398 2.736648 -4.457217 18.401561 19.994931 2.158378 5.140411 1.500567 -4.268257 26.842589 -2.431238 1.685169 15.523632 2.803419 -9.088658 0.000000 0.000000 0.000000 37.862291 5.552245 -5.929999 12.113789 3.131730 -10.412692 0.000000 0.000000 0.000000 9.895196 14.075335 -20.205262 27.436439 1.486715 -2.718179 0.000000 0.000000 0.000000 34.424532 9.185987 -4.317672 14.609488 5.029366 -10.529580 0.000000 0.000000 0.000000 -2.494815 -13.191050 9.433893 -2.158550 -1.730225 0.200369 0.000000 0.000000 0.000000 
0.054440 1.017818 0.062622 -0.866968 4.342485 -14.151943 -4.307520 2.224398 12.292936 6.376004 -1.889664 8.289192 -9.866512 -6.838969 12.517843 0.000000 0.000000 0.000000 -2.336836 -1.112894 10.779748 -3.323094 0.905299 11.389351 7.334139 7.429618 9.766460 0.000000 0.000000 0.000000 0.183370 -2.938467 36.970997 -3.816148 -4.127987 -28.295309 4.516750 9.030855 18.648486 6.030393 -2.978022 7.951531 0.000000 0.000000 0.000000 -4.876204 0.607427 -1.393993 -52.777089 1.464597 -11.489400 -34.805751 -12.634643 4.887505 -3.476372 -2.899884 10.395731 -17.678448 14.243820 3.610618 -14.602601 -6.138941 -16.758402 0.000000 0.000000 0.000000 -23.865241 -3.088400 -5.580031 -32.325804 -3.623227 -16.572002 0.000000 0.000000 0.000000 9.180200 -26.902691 -30.232948 -22.550801 -5.663018 -20.950587 0.000000 0.000000 0.000000 -20.570407 -11.900546 -7.082218 -31.838169 -11.675986 -31.554705 0.000000 0.000000 0.000000 8.668306 19.129862 17.322698 -0.566163 -6.245381 -1.715939 0.000000 0.000000 0.000000 8.664169 -1.585313 -0.921437 59.140374 5.140585 -3.550283 16.611425 16.511183 1.418775 2.949803 0.505697 -5.656633 29.199922 -7.412110 2.193076 28.001708 1.162814 -5.107337 0.000000 0.000000 0.000000 44.955759 -2.284929 -4.633029 20.360962 1.726235 -6.001473 0.000000 0.000000 0.000000 19.640965 5.246837 -10.810155 38.200169 1.774102 -3.241290 0.000000 0.000000 0.000000 41.724519 4.850272 -1.970467 27.142722 3.474637 -3.233347 0.000000 0.000000 0.000000 -0.889002 -12.886728 9.242597 -6.661684 -4.548683 0.820266 0.000000 0.000000 0.000000 
0.052792 1.013950 0.069221 -1.812950 1.945086 -13.858422 -3.819450 2.203436 12.366138 6.137512 -1.841938 8.200690 -8.331597 -5.157056 11.916160 0.000000 0.000000 0.000000 -0.944467 -1.098011 9.561752 -3.922870 1.109705 12.696252 7.531573 7.247824 10.107605 0.000000 0.000000 0.000000 -0.024596 -2.920697 38.080755 -1.049163 -5.168696 -28.153414 2.825876 11.186591 17.721083 6.679479 -2.887087 6.967241 0.000000 0.000000 0.000000 -5.067001 2.770686 -2.662301 -51.868895 2.679736 -11.480402 -35.725318 -12.050531 4.688989 -2.430603 -3.873358 11.733993 -17.856124 12.633957 3.176822 -23.934933 -1.598223 -9.996537 0.000000 0.000000 0.000000 -25.098984 -0.371003 -5.007629 -34.619061 -6.371865 -22.191722 0.000000 0.000000 0.000000 6.191350 -27.443707 -28.427218 -30.744716 -8.159450 -25.022899 0.000000 0.000000 0.000000 -21.737602 -14.487609 -8.054141 -39.231707 -9.179650 -22.736943 0.000000 0.000000 0.000000 7.223606 18.190974 16.697056 1.240759 -5.363908 -2.101077 0.000000 0.000000 0.000000 9.091422 0.484327 0.421405 59.094194 4.129185 -3.805192 15.905757 17.698520 1.515668 4.344090 1.775118 -6.489965 29.642327 -9.951587 2.389991 28.209941 0.798964 -4.030017 0.000000 0.000000 0.000000 45.472806 -4.539870 -4.165801 16.001368 3.438014 -10.431574 0.000000 0.000000 0.000000 20.835693 11.393246 -17.139716 30.844588 -0.560707 0.328135 0.000000 0.000000 0.000000 42.799646 7.191498 -2.428833 19.415987 4.741958 -7.654437 0.000000 0.000000 0.000000 -3.447450 -19.720947 14.432699 -4.899395 0.697912 -1.388365 0.000000 0.000000 0.000000 
